<?xml version="1.0" standalone="no"?>
<!DOCTYPE svg PUBLIC "-//W3C//DTD SVG 1.1//EN" "http://www.w3.org/Graphics/SVG/1.1/DTD/svg11.dtd" >
<svg>
<metadata>
Created by FontForge 20090914 at Fri Feb 24 00:50:06 2012
 By root
Copyright (c) Jeri Ingalls,,, 2003. All rights reserved.
</metadata>
<defs>
<font id="JIChubbyCaps" horiz-adv-x="500" >
  <font-face 
    font-family="JI Chubby Caps"
    font-weight="400"
    font-variant="small-caps"
    font-stretch="normal"
    units-per-em="1000"
    panose-1="0 0 0 0 0 0 0 0 0 0"
    ascent="800"
    descent="-200"
    x-height="700"
    cap-height="714"
    bbox="49.6538 -98.5312 957.765 821.531"
    underline-thickness="50"
    underline-position="-75"
    unicode-range="U+0020-U+201D"
  />
<missing-glyph 
 />
    <glyph glyph-name=".notdef" 
 />
    <glyph glyph-name="space" unicode=" " 
 />
    <glyph glyph-name="exclam" unicode="!" horiz-adv-x="346" 
d="M188 762q21 -1 36.5 -5.5t26.5 -15t19.5 -28t14.5 -43.5q7 -30 9 -56.5t-1 -53t-11 -54t-21 -59.5l-26.5 -65t-16.5 -37.5t-20 -37.5l-38 -65l-33.5 65.5t-23.5 50.5t-18 45.5l-17 49.5q-6 22 -9 37.5t-4.5 26l-2.5 17.5t-1 13q-2 39 3 78t20 70t42.5 49.5t71.5 17.5z
M61 55q0 -42 28 -70t70 -28t71 28t29 70q0 21 -8 39t-21.5 31.5t-31.5 21.5t-39 8t-38.5 -8t-31 -21.5t-21 -31.5t-7.5 -39z" />
    <glyph glyph-name="quotedbl" unicode="&#x22;" horiz-adv-x="518" 
d="M54 741q-10 -37 9.5 -68.5t57.5 -40.5q-28 -61 -25.5 -84t23 -14t53 46t64.5 95q12 21 8.5 43t-16 41t-31 32t-36.5 17q-37 8 -68 -11t-39 -56zM277 741q-10 -37 9.5 -68.5t57.5 -40.5q-28 -61 -25.5 -84t23 -14t53 46t64.5 95q12 21 8.5 43t-16 41t-31 32t-36.5 17
q-37 8 -68 -11t-39 -56z" />
    <glyph glyph-name="quotesingle" unicode="'" horiz-adv-x="295" 
d="M54 731q-10 -37 9.5 -68.5t57.5 -40.5q-28 -61 -25.5 -84t23 -14t53 46t64.5 95q12 21 8.5 43t-16 41t-31 32t-36.5 17q-37 8 -68 -11t-39 -56z" />
    <glyph glyph-name="comma" unicode="," horiz-adv-x="295" 
d="M54 111q-10 -37 9.5 -68.5t57.5 -40.5q-28 -61 -25.5 -84t23 -14t53 46t64.5 95q12 21 8.5 43t-16 41t-31 32t-36.5 17q-37 8 -68 -11t-39 -56z" />
    <glyph glyph-name="hyphen" unicode="-" horiz-adv-x="601" 
d="M349 234q-26 0 -42 -0.5t-33 -0.5q-16 0 -37.5 0.5t-57.5 1.5q-31 0 -51 4t-33.5 12t-22 20.5t-16.5 29.5q-3 23 -5 46t3.5 43t20.5 36t47 26q7 2 26 4t41 3l43 2t33 1l94 2q26 0 59.5 -4t58.5 -10q27 -7 42 -18.5t22 -28t8.5 -38t1.5 -48.5q0 -29 -13 -45.5t-38.5 -24.5
t-63.5 -10t-87 -3z" />
    <glyph glyph-name="period" unicode="." horiz-adv-x="298" 
d="M50 97q0 -42 28 -70t70 -28t71 28t29 70q0 21 -8 39t-21.5 31.5t-31.5 21.5t-39 8t-38.5 -8t-31 -21.5t-21 -31.5t-7.5 -39z" />
    <glyph glyph-name="zero" unicode="0" horiz-adv-x="653" 
d="M596 453q11 -69 3.5 -132.5t-29 -118t-55 -96.5t-74.5 -68t-88 -32.5t-96 9.5q-58 18 -101.5 63.5t-69.5 106t-33 130.5t8 138t53.5 128t102.5 101q33 24 72.5 30.5t79.5 -2t78 -31t69 -56t52.5 -76.5t27.5 -94zM400 386v-3q0 21 -8.5 36.5t-20.5 25.5t-24.5 13.5
t-21.5 0.5q-18 1 -32.5 -12t-22 -33t-6.5 -43.5t14 -44.5q4 -12 13.5 -20t21 -11t24 -1.5t23.5 7.5q12 7 19.5 14.5t12 17.5t6 23t2.5 30z" />
    <glyph glyph-name="one" unicode="1" horiz-adv-x="455" 
d="M404 415q-1 -26 -2 -61t-1.5 -74t-2 -79.5t-4.5 -76.5q-2 -31 -7 -51t-15 -33t-24.5 -21t-33.5 -15q-27 -2 -47 -4t-38.5 1.5t-38.5 16.5t-48 42q-6 6 -12.5 17.5t-9.5 41t0 83t17 144.5q10 64 6.5 106.5t-19.5 47.5q-24 -5 -41.5 8t-25.5 37t-6.5 55.5t16.5 64.5
q16 36 48 49.5t68.5 14.5t71.5 -5.5l57 -10.5q33 -7 51.5 -35.5t28 -70t11.5 -92t1 -100.5z" />
    <glyph glyph-name="two" unicode="2" horiz-adv-x="644" 
d="M521 639q-33 30 -71 45.5t-78.5 20t-83 -1t-85.5 -17.5q-38 -14 -66 -31t-45 -40q-29 -34 -29 -85q0 -39 19.5 -59t44 -27.5t47.5 -5.5t29 6q15 10 20.5 28t10 34.5t13 26t29.5 2.5q22 -8 27.5 -25t-2 -39.5t-25 -47.5t-41.5 -50t-52 -47t-55 -38q-8 -5 -19 -16
t-22.5 -29.5t-21 -44.5t-13.5 -61q-5 -39 9.5 -64t39 -39.5t55 -21.5t58 -9t48 -1.5t24.5 -0.5q2 0 28 -2t62 -1.5t77 5t74 17t52.5 34t12.5 55.5q-5 22 -10.5 38.5t-22.5 26t-50 11.5t-91 -3q-44 -4 -61.5 3t-20.5 16t1.5 17t3.5 7q-6 -6 0 1t21 21.5t36.5 33t45.5 34.5
q38 25 67.5 68t43 90t7 91.5t-40.5 74.5z" />
    <glyph glyph-name="three" unicode="3" horiz-adv-x="644" 
d="M319 550q11 -1 28.5 -6.5t21.5 -25.5q1 -6 3 -14t0 -17t-11.5 -18.5t-30.5 -18.5q-24 -17 -39 -34t-18.5 -35t6 -38t35.5 -44q5 -5 12 -10.5t13.5 -13t11 -16t3.5 -19.5q-2 -30 -16.5 -43t-34.5 -12q-23 2 -31.5 12t-12.5 24q-3 13 -2 24q-4 34 -23 58.5t-45 34
t-54.5 3.5t-51.5 -32q-13 -15 -21.5 -34.5t-10.5 -43.5t3.5 -52t21.5 -59q24 -47 58.5 -73t77.5 -36.5t93.5 -9.5t106.5 7q36 4 69 23.5t58.5 47.5t40 60t13.5 61q-1 34 -6.5 60.5t-18.5 47.5t-35 38t-55 33q31 19 49.5 41.5t28 42.5t13 36t3.5 22q11 174 -214 187
q-59 4 -101 -2.5t-74.5 -23t-57 -43.5t-46.5 -63q-17 -28 -13 -68t32 -72q30 -21 58 -26.5t50.5 1.5t38.5 23.5t22 40.5q3 11 6 24.5t8.5 25t14.5 19t23 6.5z" />
    <glyph glyph-name="four" unicode="4" horiz-adv-x="635" 
d="M273 560q0 -17 1 -37t5.5 -37t13 -27t24.5 -6q15 4 21.5 14.5t8 26.5t0.5 35.5t-1 40.5q1 23 5 47t11.5 43.5t20.5 31.5t32 12l12.5 1t30.5 1.5t37.5 0t34.5 -3.5q19 -4 29 -21.5t14 -45t5 -63t4 -76.5q2 -40 2.5 -82t0.5 -84t-1 -83t-1 -77q1 -38 -6.5 -70t-24 -55
t-41.5 -35t-59 -10l-35 2t-34 6t-28.5 17t-18.5 34q-2 9 -1.5 32t0 47.5t-4.5 44t-14 19.5h-42t-56 3.5t-60 11.5t-54 25.5t-39 45.5t-14 70v45v68v71v58q0 14 2 31.5t6 33.5t10.5 27t15.5 11q8 2 25 4.5t52 1.5q24 -1 42.5 -3.5t32.5 -16t22.5 -43.5t13.5 -87z" />
    <glyph glyph-name="five" unicode="5" horiz-adv-x="555" 
d="M444 70q-28 -31 -60 -47t-65.5 -20.5t-69 1t-71.5 18.5q-32 14 -55.5 31.5t-37.5 40.5q-24 34 -24 87q0 40 15.5 61t35.5 29.5t38.5 7.5t23.5 -5q12 -10 20 -23t15.5 -24t18.5 -17t29 0q37 12 44 32.5t-3.5 41t-31 34.5t-38.5 13q-59 -5 -100 10.5t-59 48.5
q-10 20 -15.5 66.5t-1.5 123.5q2 40 16.5 65.5t35 41.5t44.5 23t45 9t36.5 1.5t18.5 -0.5t25 1.5t52.5 0.5t64 -5.5t61 -17t43 -34t9.5 -56.5q-8 -46 -62 -58.5t-152 -1.5q-22 2 -31.5 -4.5t-11 -16t1 -19t4.5 -12.5q12 1 38 -1.5t56.5 -10.5t59 -23.5t44.5 -40.5
q20 -23 32.5 -69t13.5 -99t-11 -103t-41 -80z" />
    <glyph glyph-name="six" unicode="6" horiz-adv-x="583" 
d="M338 429q33 4 67 -8t61.5 -35.5t45.5 -56t20 -68.5q4 -118 -44.5 -179t-160.5 -82q-8 -2 -36 -2.5t-64 9.5t-74.5 36.5t-68.5 79.5q-28 49 -32.5 100.5t7.5 102t37.5 100t57.5 95t68 86.5l69 76q15 15 35 18.5t40 1.5t37 -8t25 -11q9 -5 20 -16.5t20 -25.5t14 -29t3 -27
q-3 -17 -22 -40t-42.5 -46t-46.5 -42.5t-36 -28.5zM340 243q-9 52 -51 51q-12 0 -23.5 -7t-18.5 -18.5t-9.5 -25t3.5 -27.5q9 -23 20.5 -32t22 -10t19 2.5t11.5 5.5q17 12 23 28.5t3 32.5z" />
    <glyph glyph-name="seven" unicode="7" horiz-adv-x="616" 
d="M361 702q-39 -2 -75.5 -0.5t-68.5 1.5t-59.5 -3.5t-49.5 -14.5q-23 -12 -37 -31t-18.5 -41.5t-0.5 -46.5t16 -45.5t31.5 -37.5t46.5 -23q4 -1 17 0.5t31 3t37.5 2t36.5 -0.5q16 -6 24 -7t10 -3.5t-1.5 -10t-9.5 -26.5q-23 -40 -35.5 -60l-19.5 -31l-11.5 -18t-12.5 -22
q-26 -39 -45.5 -78t-25.5 -74t3.5 -64t41.5 -49q34 -19 62.5 -21.5t54 9.5t49 38.5t48.5 65.5h-1q30 43 50 74.5t33 55t21 40.5l15 31q16 27 28.5 66.5t17.5 83.5t-1.5 87t-29.5 77.5t-64.5 54.5t-107.5 18z" />
    <glyph glyph-name="eight" unicode="8" horiz-adv-x="638" 
d="M587 193q1 -29 -14 -62t-40.5 -61t-58.5 -47.5t-68 -21.5q-56 -3 -109 -3t-97.5 10.5t-78 34.5t-51.5 70q-23 61 -20 104t21 74.5t44.5 54l50.5 42.5q-38 8 -61.5 30t-34.5 49t-10 54.5t13 47.5q22 36 46.5 63t57 43.5t74.5 23t101 2.5q225 -13 214 -187q0 -6 -3.5 -22
t-13 -36t-28 -42.5t-49.5 -41.5q33 -16 55 -33t35 -38t18.5 -47.5t6.5 -60.5zM348 233q1 7 -2.5 14.5t-9.5 13.5t-13 10t-14 4q-34 2 -48.5 -15.5t-7.5 -45.5q4 -14 12.5 -24t31.5 -12q20 -1 34.5 15.5t16.5 39.5zM313 543q-19 1 -32 -16.5t-14 -37.5q-3 -36 43 -38
q16 0 25.5 6.5t14 15.5t5 19t-0.5 17q-2 17 -16 25t-25 9z" />
    <glyph glyph-name="nine" unicode="9" horiz-adv-x="583" 
d="M245 279q-33 -5 -67 7t-61.5 35.5t-45.5 56t-20 68.5q-5 118 43.5 179t159.5 83q5 1 20 2t35.5 -0.5t45 -8t49.5 -20.5t49.5 -37t44.5 -58q28 -50 32.5 -101t-7 -102t-36.5 -100t-57 -95t-68 -87l-69 -76q-14 -15 -34 -19t-40 -1.5t-37 8t-26 10.5t-20 16.5t-20 25.5
t-14 29t-3 27q3 17 21.5 40t42 46.5t46.5 43t36 28.5zM243 465q9 -52 51 -51q12 0 23.5 7t18.5 18.5t9 25t-4 27.5q-9 23 -20.5 32t-22 10t-19 -2.5t-11.5 -5.5q-17 -12 -23 -28.5t-2 -32.5z" />
    <glyph glyph-name="colon" unicode=":" horiz-adv-x="302" 
d="M54 147q0 -42 28 -70t70 -28t71 28t29 70q0 21 -8 39t-21.5 31.5t-31.5 21.5t-39 8t-38.5 -8t-31 -21.5t-21 -31.5t-7.5 -39zM53 484q0 -42 28 -70t70 -28t71 28t29 70q0 21 -8 39t-21.5 31.5t-31.5 21.5t-39 8t-38.5 -8t-31 -21.5t-21 -31.5t-7.5 -39z" />
    <glyph glyph-name="semicolon" unicode=";" horiz-adv-x="298" 
d="M50 473q0 -42 28 -70t70 -28t71 28t29 70q0 21 -8 39t-21.5 31.5t-31.5 21.5t-39 8t-38.5 -8t-31 -21.5t-21 -31.5t-7.5 -39zM55 212q-10 -37 9.5 -68.5t57.5 -40.5q-28 -61 -25.5 -84t23 -14t53 46t64.5 95q12 21 8.5 43t-16 41t-31 32t-36.5 17q-37 8 -68 -11t-39 -56z
" />
    <glyph glyph-name="question" unicode="?" horiz-adv-x="525" 
d="M433 697q-28 31 -60 47t-65.5 20.5t-69 -1t-71.5 -18.5q-32 -14 -55.5 -31.5t-37.5 -40.5q-24 -35 -24 -87q0 -40 16.5 -60t37 -27.5t39.5 -5.5t24 6q12 10 16.5 28.5l8.5 35t11 26.5t25 2t22 -24.5t-3 -38t-22.5 -46t-35.5 -50t-42.5 -49.5t-42.5 -43q-17 -39 -8.5 -64
t31 -38t53 -14.5t58 7t45.5 26.5t15 43q1 8 10.5 21t23.5 27.5t29 28.5t27 24q31 27 53 65.5t29.5 79.5t-0.5 81t-37 70zM97 50q0 -42 28 -70t70 -28t71 28t29 70q0 21 -8 39t-21.5 31.5t-31.5 21.5t-39 8t-38.5 -8t-31 -21.5t-21 -31.5t-7.5 -39z" />
    <glyph glyph-name="B" unicode="B" horiz-adv-x="655" 
d="M604 210q3 -29 -10 -62.5t-37 -63.5t-55.5 -51.5t-66.5 -25.5q-56 -7 -107.5 -9.5t-96 5.5t-79.5 30t-59 65q-16 29 -24 54t-11.5 51t-4 56.5t-0.5 70.5q0 16 -1.5 45.5t-1.5 61.5t3.5 63.5t13.5 52.5q18 38 40.5 66t54 46.5t74 27.5t101.5 9q226 0 226 -173
q0 -6 -2.5 -22t-11 -37t-25.5 -44.5t-46 -44.5q34 -14 56.5 -29.5t37 -36t22 -46t10.5 -59.5zM363 235q0 15 -14 27t-28 12q-34 0 -47 -18.5t-5 -45.5q5 -14 14 -23.5t32 -9.5q20 0 34 17.5t14 40.5zM303 426q52 5 43 67v1q-11 20 -23 22t-23 2q-19 0 -31 -18t-12 -38
q0 -36 46 -36z" />
    <glyph glyph-name="C" unicode="C" horiz-adv-x="675" 
d="M336 0q-40 4 -71 11t-58 22.5t-53 42t-54 70.5q-26 39 -38 83.5t-12 93.5q0 63 22.5 126t71.5 120q32 39 62.5 66t68.5 41.5t88 17t121 -7.5q35 -6 63 -28t46 -51.5t25 -63.5t0 -64q0 -25 -14.5 -47.5t-35.5 -38.5t-44 -23t-38 0q-6 1 -19.5 7l-28 13l-27 12.5t-17.5 5.5
q-18 0 -34.5 -9t-28.5 -23t-19.5 -32t-7.5 -36q0 -44 36 -44q10 0 33 8.5t48.5 19t48.5 19t34 8.5q25 0 47 -8.5t38 -24t25.5 -36.5t9.5 -46q1 -102 -99 -156q-9 -6 -26 -14t-42 -15t-55.5 -12t-66.5 -6z" />
    <glyph glyph-name="D" unicode="D" horiz-adv-x="688" 
d="M50 585q49 52 128 93q43 22 80.5 25.5t68.5 3.5q54 2 102.5 -16t87.5 -48t66.5 -68t39.5 -76q4 -15 8 -35.5t6 -49t0.5 -66.5t-7.5 -88q-7 -57 -28.5 -100t-51 -73t-64 -47.5t-67.5 -24.5q-38 -8 -75 -10.5t-66.5 -2t-49.5 2t-23 1.5q-14 0 -33 3t-38.5 9.5t-37.5 16.5
t-30 24q-2 27 -4.5 69t-4.5 92t-3 105t-1 109q0 73 -3 151zM412 406v-7q1 19 -13 37.5t-34 29.5t-41.5 11.5t-34.5 -15.5q0 -28 -1 -61t-1 -62q0 -28 2.5 -47t10.5 -19q30 0 52 6.5t36 21.5t20.5 40.5t3.5 64.5z" />
    <glyph glyph-name="E" unicode="E" horiz-adv-x="660" 
d="M600 97q-2 -28 -11 -44.5t-24 -26t-36 -13.5t-47 -6q-60 -10 -137 -11.5t-173 12.5q-42 6 -66 38t-36 73.5t-15.5 84t-3.5 68.5q-1 40 0.5 85.5t7.5 99.5q5 47 12.5 84t24 66.5t44 52t72.5 39.5q11 4 29.5 6.5t42 4t50.5 2t54 0.5q37 0 70.5 -7.5t60.5 -24t45.5 -43
t26.5 -64.5q3 -32 -18.5 -49.5t-55.5 -28.5t-73.5 -19t-72.5 -20l76.5 -9t81.5 -18.5t61.5 -39.5t17.5 -72q-3 -36 -24.5 -52.5t-53 -24t-70 -10.5t-76.5 -12q5 1 24.5 -1.5t45 -8.5t53.5 -16.5t50 -24.5t34.5 -31.5t8.5 -38.5z" />
    <glyph glyph-name="F" unicode="F" horiz-adv-x="685" 
d="M626 334q-2 -18 -7.5 -31t-16 -23t-26.5 -18.5t-38 -18.5q-45 -20 -90 -20q-44 0 -89 10q11 -40 14.5 -64t2.5 -30q-3 -39 -18.5 -64.5t-37 -40.5t-47 -21.5t-48 -7.5t-40 1.5t-23.5 4.5q-38 18 -61 59.5t-38 111.5q-6 25 -8.5 48t-3.5 54t-0.5 74.5t0.5 110.5
q6 62 40 117t85 84q38 22 84.5 34t94 14.5t93 -4t81.5 -19.5q26 -11 46.5 -22.5t34.5 -27t20.5 -36t3.5 -48.5q-2 -21 -9.5 -38t-34.5 -29t-80.5 -17.5t-146.5 -3.5l94 -17t89 -24t63.5 -38.5t16.5 -59.5z" />
    <glyph glyph-name="G" unicode="G" horiz-adv-x="825" 
d="M413 253q-10 7 -25 24t-15 35q0 9 4.5 18t11.5 17t15 14.5t16 9.5q25 8 59.5 15t72 11t74.5 3t68 -8t52 -22.5t27 -41.5q4 -19 -5 -35.5t-26.5 -29t-39.5 -20t-43 -8.5v-23t-0.5 -26.5t-2.5 -26.5t-5 -23q-12 -35 -39.5 -61t-65 -43.5t-82.5 -26t-91 -8.5t-93.5 10
t-89.5 31.5t-74 55.5t-47 83q-14 46 -17 96t3.5 99.5t22 96.5t39.5 87q70 106 189 147q6 2 30.5 5t55 4.5t61 1t50.5 -4.5q27 -6 54 -18t48.5 -30.5t34.5 -44t13 -58.5q0 -26 -24 -60q-11 -16 -31.5 -28.5t-44.5 -20t-48 -8.5t-40 6q-32 10 -57 15t-44.5 3.5t-35.5 -11.5
t-31 -30q-13 -21 -20.5 -54.5t-1 -66t32 -58t77.5 -30.5q12 4 22.5 8.5t16 9t4 9.5t-14.5 11z" />
    <glyph glyph-name="H" unicode="H" horiz-adv-x="726" 
d="M416 147q0 16 -1.5 36.5t-6.5 37t-15.5 26.5t-29.5 6q-18 -4 -25 -14.5t-9 -26t-0.5 -35t1.5 -40.5q-1 -23 -5.5 -46.5t-13.5 -42.5t-24 -31t-37 -12l-15 -1t-36 -2t-44 -0.5t-40 3.5q-23 4 -34 21.5t-16 44.5t-6.5 62t-4.5 76q-3 39 -3.5 80.5t-0.5 83.5t0.5 82.5
t0.5 76.5q-1 37 8 69t28 54.5t48 34.5t69 10q20 0 37 -2t30 -9t20.5 -20t8.5 -35q0 -8 0.5 -29.5t6 -44t18.5 -40.5t38 -19q23 -2 39.5 30t16.5 110q0 21 7.5 32.5t21 17t32 7t41.5 2.5q70 3 108 -26.5t38 -104.5q0 -9 0.5 -43t1.5 -80t2.5 -99t2.5 -101.5t1.5 -85.5
t0.5 -52q0 -14 -2 -31.5t-6.5 -33t-12.5 -26.5t-19 -11q-10 -2 -29.5 -4.5t-60.5 -1.5q-28 1 -50 3t-38 15t-26.5 43t-15.5 86z" />
    <glyph glyph-name="I" unicode="I" horiz-adv-x="412" 
d="M361 414q-1 -26 -2 -61t-2 -74t-2.5 -79.5t-4.5 -76.5q-2 -31 -8.5 -51t-17.5 -33t-28 -21t-40 -15q-31 -2 -64 -2.5t-60.5 6t-47 23.5t-24.5 51q-1 9 -3 17t-3.5 32t-2.5 73.5t-1 141.5v180q2 26 8.5 60.5t15.5 58.5q10 27 26 42t38 21.5t51 6.5t65 -2q39 -2 61 -30
t32.5 -70.5t12.5 -95t1 -102.5z" />
    <glyph glyph-name="J" unicode="J" horiz-adv-x="719" 
d="M343 252q11 -4 22.5 -3t21.5 7.5t16 20t6 33.5q0 16 -9 35.5t-20.5 42t-22 49.5t-14.5 60q-2 30 7 68.5t27 73t45.5 58t62.5 23.5q94 0 138 -54t44 -154q-1 -41 0 -82t1.5 -81.5t-1 -81.5t-8.5 -81q-14 -83 -71 -129.5t-173 -56.5q-15 -2 -47.5 -0.5t-73 9.5t-84 25
t-79 45.5t-58.5 70.5t-23 101q0 33 9.5 62t30 50.5t51.5 33.5t73 9q25 -2 44 -15t36 -46q5 -10 9.5 -26t10 -31t12.5 -25.5t17 -10.5z" />
    <glyph glyph-name="K" unicode="K" horiz-adv-x="778" 
d="M718 591q-3 -44 -17.5 -77.5t-37 -59t-51.5 -42t-60 -25.5q33 -1 62 -21t51.5 -49.5t37.5 -64t21 -63.5q8 -38 0.5 -71t-28 -57t-52 -37.5t-72.5 -11.5q-30 1 -59.5 17t-55.5 40t-47.5 53t-35.5 56q2 -48 -20 -87t-58 -61.5t-82 -25t-91 24.5q-3 2 -18 21t-24 47
q-18 55 -24 113.5t-6.5 117t2.5 116.5t4 112q1 28 9 54t28 46q23 23 46.5 32t59.5 13q21 3 40 2t35.5 -9.5t31.5 -25t29 -43.5q3 -6 5.5 -20l5.5 -32t5.5 -38.5t5.5 -39.5q25 25 52 60.5t56.5 68.5t61.5 56t67 23q54 0 88.5 -30.5t34.5 -81.5z" />
    <glyph glyph-name="L" unicode="L" horiz-adv-x="636" 
d="M271 -1q39 3 75 3q37 0 69 1.5t59.5 6t48.5 16.5q23 12 37.5 36t20.5 52.5t3.5 59t-13 56.5t-29 45t-45.5 25q-8 2 -27 4t-51 4l-26 9t-13.5 9t-6.5 16.5l-6 30.5q0 46 1 68.5t3 34t3 19t1 24.5q6 94 -35.5 137.5t-116.5 41.5q-154 -4 -162 -192v1q-5 -53 -6.5 -89
t-2 -61.5t0 -43.5t0.5 -33q0 -31 -2 -65.5t0 -67.5t12 -62t34.5 -50t66 -31t107.5 -5z" />
    <glyph glyph-name="M" unicode="M" horiz-adv-x="886" 
d="M834 267q4 -48 -2 -95t-25 -84.5t-53 -61t-86 -25.5q-32 -1 -55.5 14.5t-39.5 42t-25.5 60.5t-13.5 69.5t-3.5 69t4.5 59.5q-14 -10 -26 -26.5l-24 -33t-24.5 -28.5t-28.5 -12q-8 0 -21 11t-27.5 25.5l-29.5 28.5t-26 20q0 -32 5 -70t7 -74.5t-4.5 -69.5t-28.5 -55
q-32 -28 -75 -30t-82.5 15.5t-67.5 52.5t-29 82q-1 14 -2.5 61t7.5 132q9 88 23 155t36.5 111.5t55.5 67.5t80 24q31 1 55 -13.5t45.5 -42.5t43 -68l48.5 -89l33 61.5t48.5 74.5t61.5 60.5t73 19.5q36 -5 59 -16t37.5 -32t23 -53t15.5 -79.5t15 -111t23 -147.5z" />
    <glyph glyph-name="N" unicode="N" horiz-adv-x="849" 
d="M370 230q-1 -5 -1.5 -23t-3 -43t-7.5 -53.5t-15.5 -53t-27 -42t-40.5 -20.5q-16 -2 -45 -3.5t-60 5.5t-58.5 25t-40.5 54q-8 22 -12.5 49t-6 55t-1.5 55q0 28 1 51l3 170q2 32 8 64t17 52q24 40 55 71.5t66.5 49.5t74 19t76.5 -19q21 -11 36.5 -20.5t29 -22.5t27 -31.5
t30.5 -47.5l43 -99q0 7 -1.5 26t-2.5 44q-2 51 1.5 86t30.5 59q21 19 47 28t52 9.5t49.5 -6t39.5 -18.5q20 -16 32.5 -35.5t19.5 -42t9.5 -46t2.5 -46.5v-153t-2.5 -118.5t-9 -94t-20.5 -79.5q-12 -32 -47 -53.5t-77.5 -29t-85.5 1t-71 35.5q-6 6 -20.5 28.5t-31.5 52
l-34 59.5z" />
    <glyph glyph-name="O" unicode="O" horiz-adv-x="805" 
d="M746 456q14 -70 5 -134t-36.5 -119t-70.5 -97.5t-95.5 -68.5t-112.5 -33t-122 10q-75 18 -130.5 64t-88.5 107t-42 132t10.5 139.5t68 129.5t131.5 102q43 24 93 30.5t101 -2t99.5 -31t88 -56.5t66.5 -78t35 -95zM496 389v-3q0 21 -11 36.5t-26 25.5t-31.5 13.5
t-27.5 0.5q-23 1 -41.5 -12t-28 -33t-8 -44t17.5 -45q5 -12 17 -20t27 -11t31 -1.5t30 7.5q31 13 40 32t11 54z" />
    <glyph glyph-name="P" unicode="P" horiz-adv-x="718" 
d="M667 467q-3 -45 -12.5 -76t-28.5 -53.5t-50 -39t-77 -31.5q-29 -8 -67.5 -14t-77.5 -8q-7 -15 -5 -29.5t7 -40.5q5 -22 6.5 -44.5t-2.5 -43t-15.5 -36.5t-33.5 -25q-1 -3 -11.5 -7t-28 -8t-40 -7t-46.5 -3q-23 0 -45 5t-40 17t-29 32t-12 50q-3 47 -4.5 75t-2 44t-1 23.5
t-0.5 13.5v15v27v63v77q0 30 3.5 52t11.5 42.5t25 50.5q20 36 49.5 60.5t66 38.5t79 20t87.5 6q61 0 116.5 -15t96.5 -45.5t63.5 -76.5t17.5 -109zM417 467q0 9 -4.5 19t-12 18.5t-17.5 14.5t-21 6q-56 0 -56 -55q0 -52 38 -52q9 0 21 1t23 6t19 14.5t10 27.5z" />
    <glyph glyph-name="Q" unicode="Q" horiz-adv-x="823" 
d="M753 189q21 -28 19.5 -54t-18 -48.5t-43.5 -41t-55.5 -32t-55 -21t-41.5 -7.5q-31 0 -49.5 18t-38.5 47q-31 -24 -71 -32t-80.5 -5t-77 15t-60.5 29q-34 25 -59 61t-41 79.5t-24 92.5t-8 100q0 68 28.5 126.5t74 102.5t102.5 71.5t113 34.5q18 2 46.5 3t60 -2t63 -10.5
t54.5 -21.5q52 -31 93 -83t61 -107q19 -54 21 -97.5t-5 -76.5t-17.5 -57.5t-15.5 -40.5q0 -3 6.5 -13t17.5 -30zM477 386q0 13 -7.5 25t-19 21t-25 14.5t-25.5 5.5q-19 0 -33 -7t-23 -18.5t-13.5 -25t-4.5 -26.5q0 -8 2.5 -21t9.5 -26t20.5 -22t36.5 -9q21 0 36.5 7.5
t25.5 20.5t15 28.5t5 32.5z" />
    <glyph glyph-name="R" unicode="R" horiz-adv-x="799" 
d="M749 113q0 -44 -23 -64q-9 -8 -35.5 -16t-56.5 -14t-57.5 -10t-39.5 -4q-14 -2 -29 1.5t-28 10.5t-23 16.5t-14 20.5v-1l-12 19.5l-27.5 46.5l-32.5 56.5t-27 50.5q-8 -53 -7.5 -94.5t-5 -70t-23 -43.5t-59.5 -15q-47 0 -83 1t-60.5 12t-38 38t-15.5 79q-3 58 0 131.5
t16 146t39.5 135.5t71.5 100q30 25 65.5 40t72.5 21.5t74.5 4.5t73.5 -12q61 -18 103.5 -38t69.5 -45.5t39 -58t12 -76.5q0 -35 -8.5 -59.5t-19.5 -42t-23 -31t-19 -27.5q0 -2 7.5 -12l17 -22l18.5 -23t12 -15l36.5 -48t23 -33.5t12 -27t3.5 -28.5zM443 467q0 30 -23 47.5
t-47 17.5q-10 0 -20.5 -4.5t-19.5 -11.5t-14.5 -16.5t-5.5 -19.5q0 -79 73 -79q26 0 41.5 19t15.5 47z" />
    <glyph glyph-name="S" unicode="S" horiz-adv-x="674" 
d="M433 455q-8 -6 -12.5 -17t-0.5 -24t18.5 -25t46.5 -19q20 -5 44.5 -17.5t45.5 -33.5t35 -49.5t14 -63.5q0 -49 -16 -82.5t-40 -56t-52.5 -35t-53.5 -19t-43.5 -8t-21.5 -2.5q-20 -4 -52 -4t-69 6t-75.5 18.5t-70.5 34.5t-53.5 54t-25.5 77q-3 41 15 72.5t48 41.5
q18 6 43.5 1.5t50 -12t44 -15t26.5 -7.5q20 0 35 11t15 28q0 30 -84 60q-50 12 -76 46t-32 76t8 85t45 73q31 31 65 47t71 20.5t75 -1t77 -18.5q35 -14 60 -31.5t41 -40.5q26 -35 26 -87q0 -40 -21.5 -66.5t-69.5 -35.5q-14 -3 -28.5 0t-26 7.5t-18.5 8.5t-7 3z" />
    <glyph glyph-name="T" unicode="T" horiz-adv-x="801" 
d="M750 559q0 -35 -5.5 -59t-13.5 -42t-26 -28.5t-40.5 -15t-46.5 -5.5t-43 -1q-22 0 -27.5 -25t-4 -60t6.5 -71.5t5 -60.5v-6q0 -48 -2 -81t-13.5 -54.5t-36 -32t-69.5 -12.5q-40 -2 -75.5 0t-63 14t-45 36.5t-21.5 66.5q6 88 10 140.5t6.5 81.5t2.5 39q0 11 -3 14
q-8 16 -19 21.5t-24 5.5q-12 0 -27 -3t-31 -3q-51 0 -73 37.5t-20 103.5q1 40 14.5 66.5t33 42.5t42.5 23t45 9q7 1 35 5.5t70 9t93 7.5t103 1t101 -10.5t86 -27.5t58 -49.5t18 -76.5z" />
    <glyph glyph-name="U" unicode="U" horiz-adv-x="845" 
d="M456 0q28 2 59 5.5t61 11.5t57 21t48 34q49 49 74 106t33.5 119.5t5 130t-10.5 136.5q-5 46 -20 74t-33.5 43t-37.5 20t-32 5q-25 0 -53 -6t-52 -19t-41.5 -32.5t-21.5 -47.5q-6 -15 -6 -43t2 -57.5l3.5 -53t-1.5 -27.5q-5 -30 -18.5 -43t-30.5 -13q-23 0 -38 13t-15 43
q0 38 3 62.5t3 42.5q0 41 -5 74.5t-18.5 57.5t-37 38.5t-59.5 17.5q-20 2 -39 2.5t-38.5 -4.5t-39 -17t-40.5 -36q-12 -14 -24 -42.5t-21.5 -64.5t-15.5 -77t-6 -81q0 -66 10 -122t32.5 -101t59 -79.5t90.5 -57.5q36 -15 65.5 -22.5t55.5 -9.5t49 -1.5t44 0.5z" />
    <glyph glyph-name="V" unicode="V" horiz-adv-x="857" 
d="M806 533q0 -20 -3 -56t-26 -99l-26 -65t-38.5 -81.5t-52.5 -84.5t-67.5 -74.5t-82 -50.5t-96.5 -13q-30 7 -73.5 28t-91.5 67t-96.5 122.5t-89.5 196.5q-3 8 -9 40t-3 73t21.5 83t65.5 71q23 14 40 14.5t32 1.5q26 1 58 -14.5t62.5 -42t58 -62.5t44.5 -76q3 4 13 22.5
t24.5 42t31.5 47.5t32 39q33 33 67.5 43.5t66.5 5t59 -23t46 -39.5q17 -20 25 -50t8 -65z" />
    <glyph glyph-name="W" unicode="W" horiz-adv-x="1008" 
d="M954 567q2 -24 3.5 -56t-5.5 -68q-10 -38 -19.5 -70t-22 -64.5t-30 -67.5t-42.5 -79q-16 -28 -34.5 -55t-39 -49t-44 -35t-48.5 -13q-12 0 -32.5 8.5t-43 25.5t-44 42t-36.5 57q-12 -19 -32.5 -46.5t-46.5 -51t-54.5 -35.5t-56.5 0q-32 14 -61 41.5t-55.5 64t-49.5 79.5
t-41.5 87.5t-33.5 88.5t-24 81q-12 47 -10 99t31 92q25 37 66 53t75 14q22 -1 43.5 -6.5t41.5 -18.5t37 -34.5t31 -54.5q14 -35 19 -62t7 -52.5t5.5 -53.5t14.5 -65q2 6 11.5 32t22 53.5t25.5 48t23 16.5q13 -3 26 -23t25 -45l22.5 -48.5t18.5 -33.5q3 24 5.5 54t7.5 61
t13.5 61t22.5 54q8 18 24 41t46 43q29 17 45.5 18t36.5 1q23 1 46 -5.5t44 -22t38.5 -40.5t28.5 -61z" />
    <glyph glyph-name="X" unicode="X" horiz-adv-x="881" 
d="M830 547q-1 -9 -1.5 -18.5t-3.5 -20.5t-10.5 -25.5t-22.5 -33.5q-17 -23 -43.5 -40t-52 -28.5t-44 -18t-18.5 -9.5q0 -5 16.5 -14.5l39 -22t44.5 -28t33 -31.5q19 -21 29.5 -41t15 -38.5t4 -36.5t-3.5 -34q-3 -17 -11 -32t-20 -28t-26 -22.5t-28 -13.5q-23 -7 -55 -6.5
t-65 10.5t-63 31t-49 56q-6 11 -14 28t-16.5 32.5t-15.5 27t-10 11.5q-1 1 -10.5 -13l-24.5 -35l-33 -45t-36 -44t-35.5 -34.5t-37 -22t-43.5 -7.5t-55 8q-17 4 -33.5 14.5t-30.5 24t-24.5 29t-15.5 29.5q-15 43 -6.5 73t31.5 62q14 20 55 51t112 77q-10 15 -31 26.5
l-44.5 23.5t-46 26.5t-34.5 37.5q-29 53 -19 106.5t55 90.5q13 13 37.5 23.5t54.5 14t62.5 -2.5t61.5 -27q8 -6 25.5 -26.5t36 -47t34.5 -53.5t20 -45q30 52 60.5 86.5t57.5 55.5t49.5 30.5t37.5 11.5q32 5 62 -5.5t52.5 -32.5t35.5 -51.5t11 -62.5z" />
    <glyph glyph-name="Y" unicode="Y" horiz-adv-x="878" 
d="M241 274q-9 36 -36 64.5l-57.5 59.5t-58 67.5t-37.5 88.5q-5 25 3.5 54.5t29 54t52.5 39t74 9.5q20 -2 37.5 -6.5t34.5 -15.5t35.5 -31t41.5 -53q10 -14 20 -35l19.5 -40t18.5 -32.5t17 -13.5q15 0 26.5 14.5t20 34.5t14.5 40.5t10 32.5q13 37 29 57.5t35 31t40.5 13
t45.5 3.5q33 1 59.5 -6t47 -18t34.5 -25t20 -26q18 -35 6.5 -74t-39.5 -80.5t-64.5 -85t-67.5 -86.5q0 -4 -5 -11t-11 -19.5t-12 -31.5t-9 -46q-7 -77 -33.5 -122.5t-63.5 -65.5t-80 -18t-83 19q-31 13 -48 37.5t-27.5 58.5t-18.5 75t-20 88z" />
    <glyph glyph-name="Z" unicode="Z" horiz-adv-x="831" 
d="M779 213q4 -61 -7.5 -101.5t-37 -65t-64 -34.5t-87.5 -9q-29 1 -82 -3t-115 -6t-125.5 1.5t-112.5 18.5q-54 17 -78 48t-19 73q5 31 35.5 70.5t71.5 78.5t86 74t79 58q-17 -2 -41 -6t-51.5 -7t-54.5 -2.5t-48.5 7.5t-35 22.5t-13.5 43.5q0 29 8 61.5t23 62.5t37 53.5
t50 33.5q16 6 48.5 9t73 4.5t84.5 1.5q45 0 85.5 -1t72 -3t46.5 -4q37 -5 67 -24t49.5 -46.5t25.5 -60t-6 -63.5q-9 -24 -31 -42t-51.5 -36l-63.5 -40t-68 -55q9 -2 32 0t48.5 5t48 5t30.5 1q31 -5 48.5 -13.5t26 -22.5t11.5 -35t5 -52z" />
    <glyph glyph-name="a" unicode="a" horiz-adv-x="795" 
d="M745 227q0 -32 -1.5 -65t-10.5 -62t-28 -51.5t-54 -34.5q-23 -8 -51 -9t-55 3.5t-49 15t-32 25.5q-8 12 -13.5 39t-12.5 65q-5 24 -16.5 39t-25.5 15q-12 0 -23 -13t-13 -22q-3 -14 -5 -39t-13 -53q-22 -57 -72.5 -73.5t-119.5 0.5q-42 10 -67.5 42.5t-29.5 93.5
q-2 29 -2.5 53.5t2.5 50t10.5 55t21.5 68.5q13 36 33.5 71.5t48.5 78.5q16 25 40.5 54t55 55.5t65.5 45.5t73 25q37 5 72 -8t67 -37.5t59 -57t47 -65.5q10 -18 27 -54t33 -79.5t27.5 -89t11.5 -82.5zM451 422q-9 52 -51 51q-12 0 -23.5 -7t-18.5 -18.5t-9.5 -25t3.5 -27.5
q9 -23 20.5 -32t22 -10t19 2.5t11.5 5.5q17 12 23 28.5t3 32.5z" />
    <glyph glyph-name="b" unicode="b" horiz-adv-x="655" 
d="M604 210q3 -29 -10 -62.5t-37 -63.5t-55.5 -51.5t-66.5 -25.5q-56 -7 -107.5 -9.5t-96 5.5t-79.5 30t-59 65q-16 29 -24 54t-11.5 51t-4 56.5t-0.5 70.5q0 16 -1.5 45.5t-1.5 61.5t3.5 63.5t13.5 52.5q18 38 40.5 66t54 46.5t74 27.5t101.5 9q226 0 226 -173
q0 -6 -2.5 -22t-11 -37t-25.5 -44.5t-46 -44.5q34 -14 56.5 -29.5t37 -36t22 -46t10.5 -59.5zM363 235q0 15 -14 27t-28 12q-34 0 -47 -18.5t-5 -45.5q5 -14 14 -23.5t32 -9.5q20 0 34 17.5t14 40.5zM303 426q52 5 43 67v1q-11 20 -23 22t-23 2q-19 0 -31 -18t-12 -38
q0 -36 46 -36z" />
    <glyph glyph-name="c" unicode="c" horiz-adv-x="675" 
d="M336 0q-40 4 -71 11t-58 22.5t-53 42t-54 70.5q-26 39 -38 83.5t-12 93.5q0 63 22.5 126t71.5 120q32 39 62.5 66t68.5 41.5t88 17t121 -7.5q35 -6 63 -28t46 -51.5t25 -63.5t0 -64q0 -25 -14.5 -47.5t-35.5 -38.5t-44 -23t-38 0q-6 1 -19.5 7l-28 13l-27 12.5t-17.5 5.5
q-18 0 -34.5 -9t-28.5 -23t-19.5 -32t-7.5 -36q0 -44 36 -44q10 0 33 8.5t48.5 19t48.5 19t34 8.5q25 0 47 -8.5t38 -24t25.5 -36.5t9.5 -46q1 -102 -99 -156q-9 -6 -26 -14t-42 -15t-55.5 -12t-66.5 -6z" />
    <glyph glyph-name="d" unicode="d" horiz-adv-x="688" 
d="M50 585q49 52 128 93q43 22 80.5 25.5t68.5 3.5q54 2 102.5 -16t87.5 -48t66.5 -68t39.5 -76q4 -15 8 -35.5t6 -49t0.5 -66.5t-7.5 -88q-7 -57 -28.5 -100t-51 -73t-64 -47.5t-67.5 -24.5q-38 -8 -75 -10.5t-66.5 -2t-49.5 2t-23 1.5q-14 0 -33 3t-38.5 9.5t-37.5 16.5
t-30 24q-2 27 -4.5 69t-4.5 92t-3 105t-1 109q0 73 -3 151zM412 406v-7q1 19 -13 37.5t-34 29.5t-41.5 11.5t-34.5 -15.5q0 -28 -1 -61t-1 -62q0 -28 2.5 -47t10.5 -19q30 0 52 6.5t36 21.5t20.5 40.5t3.5 64.5z" />
    <glyph glyph-name="e" unicode="e" horiz-adv-x="660" 
d="M600 97q-2 -28 -11 -44.5t-24 -26t-36 -13.5t-47 -6q-60 -10 -137 -11.5t-173 12.5q-42 6 -66 38t-36 73.5t-15.5 84t-3.5 68.5q-1 40 0.5 85.5t7.5 99.5q5 47 12.5 84t24 66.5t44 52t72.5 39.5q11 4 29.5 6.5t42 4t50.5 2t54 0.5q37 0 70.5 -7.5t60.5 -24t45.5 -43
t26.5 -64.5q3 -32 -18.5 -49.5t-55.5 -28.5t-73.5 -19t-72.5 -20l76.5 -9t81.5 -18.5t61.5 -39.5t17.5 -72q-3 -36 -24.5 -52.5t-53 -24t-70 -10.5t-76.5 -12q5 1 24.5 -1.5t45 -8.5t53.5 -16.5t50 -24.5t34.5 -31.5t8.5 -38.5z" />
    <glyph glyph-name="f" unicode="f" horiz-adv-x="685" 
d="M626 334q-2 -18 -7.5 -31t-16 -23t-26.5 -18.5t-38 -18.5q-45 -20 -90 -20q-44 0 -89 10q11 -40 14.5 -64t2.5 -30q-3 -39 -18.5 -64.5t-37 -40.5t-47 -21.5t-48 -7.5t-40 1.5t-23.5 4.5q-38 18 -61 59.5t-38 111.5q-6 25 -8.5 48t-3.5 54t-0.5 74.5t0.5 110.5
q6 62 40 117t85 84q38 22 84.5 34t94 14.5t93 -4t81.5 -19.5q26 -11 46.5 -22.5t34.5 -27t20.5 -36t3.5 -48.5q-2 -21 -9.5 -38t-34.5 -29t-80.5 -17.5t-146.5 -3.5l94 -17t89 -24t63.5 -38.5t16.5 -59.5z" />
    <glyph glyph-name="g" unicode="g" horiz-adv-x="825" 
d="M413 253q-10 7 -25 24t-15 35q0 9 4.5 18t11.5 17t15 14.5t16 9.5q25 8 59.5 15t72 11t74.5 3t68 -8t52 -22.5t27 -41.5q4 -19 -5 -35.5t-26.5 -29t-39.5 -20t-43 -8.5v-23t-0.5 -26.5t-2.5 -26.5t-5 -23q-12 -35 -39.5 -61t-65 -43.5t-82.5 -26t-91 -8.5t-93.5 10
t-89.5 31.5t-74 55.5t-47 83q-14 46 -17 96t3.5 99.5t22 96.5t39.5 87q70 106 189 147q6 2 30.5 5t55 4.5t61 1t50.5 -4.5q27 -6 54 -18t48.5 -30.5t34.5 -44t13 -58.5q0 -26 -24 -60q-11 -16 -31.5 -28.5t-44.5 -20t-48 -8.5t-40 6q-32 10 -57 15t-44.5 3.5t-35.5 -11.5
t-31 -30q-13 -21 -20.5 -54.5t-1 -66t32 -58t77.5 -30.5q12 4 22.5 8.5t16 9t4 9.5t-14.5 11z" />
    <glyph glyph-name="h" unicode="h" horiz-adv-x="726" 
d="M416 147q0 16 -1.5 36.5t-6.5 37t-15.5 26.5t-29.5 6q-18 -4 -25 -14.5t-9 -26t-0.5 -35t1.5 -40.5q-1 -23 -5.5 -46.5t-13.5 -42.5t-24 -31t-37 -12l-15 -1t-36 -2t-44 -0.5t-40 3.5q-23 4 -34 21.5t-16 44.5t-6.5 62t-4.5 76q-3 39 -3.5 80.5t-0.5 83.5t0.5 82.5
t0.5 76.5q-1 37 8 69t28 54.5t48 34.5t69 10q20 0 37 -2t30 -9t20.5 -20t8.5 -35q0 -8 0.5 -29.5t6 -44t18.5 -40.5t38 -19q23 -2 39.5 30t16.5 110q0 21 7.5 32.5t21 17t32 7t41.5 2.5q70 3 108 -26.5t38 -104.5q0 -9 0.5 -43t1.5 -80t2.5 -99t2.5 -101.5t1.5 -85.5
t0.5 -52q0 -14 -2 -31.5t-6.5 -33t-12.5 -26.5t-19 -11q-10 -2 -29.5 -4.5t-60.5 -1.5q-28 1 -50 3t-38 15t-26.5 43t-15.5 86z" />
    <glyph glyph-name="i" unicode="i" horiz-adv-x="412" 
d="M361 414q-1 -26 -2 -61t-2 -74t-2.5 -79.5t-4.5 -76.5q-2 -31 -8.5 -51t-17.5 -33t-28 -21t-40 -15q-31 -2 -64 -2.5t-60.5 6t-47 23.5t-24.5 51q-1 9 -3 17t-3.5 32t-2.5 73.5t-1 141.5v180q2 26 8.5 60.5t15.5 58.5q10 27 26 42t38 21.5t51 6.5t65 -2q39 -2 61 -30
t32.5 -70.5t12.5 -95t1 -102.5z" />
    <glyph glyph-name="j" unicode="j" horiz-adv-x="719" 
d="M343 252q11 -4 22.5 -3t21.5 7.5t16 20t6 33.5q0 16 -9 35.5t-20.5 42t-22 49.5t-14.5 60q-2 30 7 68.5t27 73t45.5 58t62.5 23.5q94 0 138 -54t44 -154q-1 -41 0 -82t1.5 -81.5t-1 -81.5t-8.5 -81q-14 -83 -71 -129.5t-173 -56.5q-15 -2 -47.5 -0.5t-73 9.5t-84 25
t-79 45.5t-58.5 70.5t-23 101q0 33 9.5 62t30 50.5t51.5 33.5t73 9q25 -2 44 -15t36 -46q5 -10 9.5 -26t10 -31t12.5 -25.5t17 -10.5z" />
    <glyph glyph-name="k" unicode="k" horiz-adv-x="778" 
d="M718 591q-3 -44 -17.5 -77.5t-37 -59t-51.5 -42t-60 -25.5q33 -1 62 -21t51.5 -49.5t37.5 -64t21 -63.5q8 -38 0.5 -71t-28 -57t-52 -37.5t-72.5 -11.5q-30 1 -59.5 17t-55.5 40t-47.5 53t-35.5 56q2 -48 -20 -87t-58 -61.5t-82 -25t-91 24.5q-3 2 -18 21t-24 47
q-18 55 -24 113.5t-6.5 117t2.5 116.5t4 112q1 28 9 54t28 46q23 23 46.5 32t59.5 13q21 3 40 2t35.5 -9.5t31.5 -25t29 -43.5q3 -6 5.5 -20l5.5 -32t5.5 -38.5t5.5 -39.5q25 25 52 60.5t56.5 68.5t61.5 56t67 23q54 0 88.5 -30.5t34.5 -81.5z" />
    <glyph glyph-name="l" unicode="l" horiz-adv-x="636" 
d="M271 -1q39 3 75 3q37 0 69 1.5t59.5 6t48.5 16.5q23 12 37.5 36t20.5 52.5t3.5 59t-13 56.5t-29 45t-45.5 25q-8 2 -27 4t-51 4l-26 9t-13.5 9t-6.5 16.5l-6 30.5q0 46 1 68.5t3 34t3 19t1 24.5q6 94 -35.5 137.5t-116.5 41.5q-154 -4 -162 -192v1q-5 -53 -6.5 -89
t-2 -61.5t0 -43.5t0.5 -33q0 -31 -2 -65.5t0 -67.5t12 -62t34.5 -50t66 -31t107.5 -5z" />
    <glyph glyph-name="m" unicode="m" horiz-adv-x="886" 
d="M834 267q4 -48 -2 -95t-25 -84.5t-53 -61t-86 -25.5q-32 -1 -55.5 14.5t-39.5 42t-25.5 60.5t-13.5 69.5t-3.5 69t4.5 59.5q-14 -10 -26 -26.5l-24 -33t-24.5 -28.5t-28.5 -12q-8 0 -21 11t-27.5 25.5l-29.5 28.5t-26 20q0 -32 5 -70t7 -74.5t-4.5 -69.5t-28.5 -55
q-32 -28 -75 -30t-82.5 15.5t-67.5 52.5t-29 82q-1 14 -2.5 61t7.5 132q9 88 23 155t36.5 111.5t55.5 67.5t80 24q31 1 55 -13.5t45.5 -42.5t43 -68l48.5 -89l33 61.5t48.5 74.5t61.5 60.5t73 19.5q36 -5 59 -16t37.5 -32t23 -53t15.5 -79.5t15 -111t23 -147.5z" />
    <glyph glyph-name="n" unicode="n" horiz-adv-x="849" 
d="M370 230q-1 -5 -1.5 -23t-3 -43t-7.5 -53.5t-15.5 -53t-27 -42t-40.5 -20.5q-16 -2 -45 -3.5t-60 5.5t-58.5 25t-40.5 54q-8 22 -12.5 49t-6 55t-1.5 55q0 28 1 51l3 170q2 32 8 64t17 52q24 40 55 71.5t66.5 49.5t74 19t76.5 -19q21 -11 36.5 -20.5t29 -22.5t27 -31.5
t30.5 -47.5l43 -99q0 7 -1.5 26t-2.5 44q-2 51 1.5 86t30.5 59q21 19 47 28t52 9.5t49.5 -6t39.5 -18.5q20 -16 32.5 -35.5t19.5 -42t9.5 -46t2.5 -46.5v-153t-2.5 -118.5t-9 -94t-20.5 -79.5q-12 -32 -47 -53.5t-77.5 -29t-85.5 1t-71 35.5q-6 6 -20.5 28.5t-31.5 52
l-34 59.5z" />
    <glyph glyph-name="o" unicode="o" horiz-adv-x="805" 
d="M746 456q14 -70 5 -134t-36.5 -119t-70.5 -97.5t-95.5 -68.5t-112.5 -33t-122 10q-75 18 -130.5 64t-88.5 107t-42 132t10.5 139.5t68 129.5t131.5 102q43 24 93 30.5t101 -2t99.5 -31t88 -56.5t66.5 -78t35 -95zM496 389v-3q0 21 -11 36.5t-26 25.5t-31.5 13.5
t-27.5 0.5q-23 1 -41.5 -12t-28 -33t-8 -44t17.5 -45q5 -12 17 -20t27 -11t31 -1.5t30 7.5q31 13 40 32t11 54z" />
    <glyph glyph-name="p" unicode="p" horiz-adv-x="718" 
d="M667 467q-3 -45 -12.5 -76t-28.5 -53.5t-50 -39t-77 -31.5q-29 -8 -67.5 -14t-77.5 -8q-7 -15 -5 -29.5t7 -40.5q5 -22 6.5 -44.5t-2.5 -43t-15.5 -36.5t-33.5 -25q-1 -3 -11.5 -7t-28 -8t-40 -7t-46.5 -3q-23 0 -45 5t-40 17t-29 32t-12 50q-3 47 -4.5 75t-2 44t-1 23.5
t-0.5 13.5v15v27v63v77q0 30 3.5 52t11.5 42.5t25 50.5q20 36 49.5 60.5t66 38.5t79 20t87.5 6q61 0 116.5 -15t96.5 -45.5t63.5 -76.5t17.5 -109zM417 467q0 9 -4.5 19t-12 18.5t-17.5 14.5t-21 6q-56 0 -56 -55q0 -52 38 -52q9 0 21 1t23 6t19 14.5t10 27.5z" />
    <glyph glyph-name="q" unicode="q" horiz-adv-x="823" 
d="M753 189q21 -28 19.5 -54t-18 -48.5t-43.5 -41t-55.5 -32t-55 -21t-41.5 -7.5q-31 0 -49.5 18t-38.5 47q-31 -24 -71 -32t-80.5 -5t-77 15t-60.5 29q-34 25 -59 61t-41 79.5t-24 92.5t-8 100q0 68 28.5 126.5t74 102.5t102.5 71.5t113 34.5q18 2 46.5 3t60 -2t63 -10.5
t54.5 -21.5q52 -31 93 -83t61 -107q19 -54 21 -97.5t-5 -76.5t-17.5 -57.5t-15.5 -40.5q0 -3 6.5 -13t17.5 -30zM477 386q0 13 -7.5 25t-19 21t-25 14.5t-25.5 5.5q-19 0 -33 -7t-23 -18.5t-13.5 -25t-4.5 -26.5q0 -8 2.5 -21t9.5 -26t20.5 -22t36.5 -9q21 0 36.5 7.5
t25.5 20.5t15 28.5t5 32.5z" />
    <glyph glyph-name="r" unicode="r" horiz-adv-x="799" 
d="M749 113q0 -44 -23 -64q-9 -8 -35.5 -16t-56.5 -14t-57.5 -10t-39.5 -4q-14 -2 -29 1.5t-28 10.5t-23 16.5t-14 20.5v-1l-12 19.5l-27.5 46.5l-32.5 56.5t-27 50.5q-8 -53 -7.5 -94.5t-5 -70t-23 -43.5t-59.5 -15q-47 0 -83 1t-60.5 12t-38 38t-15.5 79q-3 58 0 131.5
t16 146t39.5 135.5t71.5 100q30 25 65.5 40t72.5 21.5t74.5 4.5t73.5 -12q61 -18 103.5 -38t69.5 -45.5t39 -58t12 -76.5q0 -35 -8.5 -59.5t-19.5 -42t-23 -31t-19 -27.5q0 -2 7.5 -12l17 -22l18.5 -23t12 -15l36.5 -48t23 -33.5t12 -27t3.5 -28.5zM443 467q0 30 -23 47.5
t-47 17.5q-10 0 -20.5 -4.5t-19.5 -11.5t-14.5 -16.5t-5.5 -19.5q0 -79 73 -79q26 0 41.5 19t15.5 47z" />
    <glyph glyph-name="s" unicode="s" horiz-adv-x="674" 
d="M433 455q-8 -6 -12.5 -17t-0.5 -24t18.5 -25t46.5 -19q20 -5 44.5 -17.5t45.5 -33.5t35 -49.5t14 -63.5q0 -49 -16 -82.5t-40 -56t-52.5 -35t-53.5 -19t-43.5 -8t-21.5 -2.5q-20 -4 -52 -4t-69 6t-75.5 18.5t-70.5 34.5t-53.5 54t-25.5 77q-3 41 15 72.5t48 41.5
q18 6 43.5 1.5t50 -12t44 -15t26.5 -7.5q20 0 35 11t15 28q0 30 -84 60q-50 12 -76 46t-32 76t8 85t45 73q31 31 65 47t71 20.5t75 -1t77 -18.5q35 -14 60 -31.5t41 -40.5q26 -35 26 -87q0 -40 -21.5 -66.5t-69.5 -35.5q-14 -3 -28.5 0t-26 7.5t-18.5 8.5t-7 3z" />
    <glyph glyph-name="t" unicode="t" horiz-adv-x="801" 
d="M750 559q0 -35 -5.5 -59t-13.5 -42t-26 -28.5t-40.5 -15t-46.5 -5.5t-43 -1q-22 0 -27.5 -25t-4 -60t6.5 -71.5t5 -60.5v-6q0 -48 -2 -81t-13.5 -54.5t-36 -32t-69.5 -12.5q-40 -2 -75.5 0t-63 14t-45 36.5t-21.5 66.5q6 88 10 140.5t6.5 81.5t2.5 39q0 11 -3 14
q-8 16 -19 21.5t-24 5.5q-12 0 -27 -3t-31 -3q-51 0 -73 37.5t-20 103.5q1 40 14.5 66.5t33 42.5t42.5 23t45 9q7 1 35 5.5t70 9t93 7.5t103 1t101 -10.5t86 -27.5t58 -49.5t18 -76.5z" />
    <glyph glyph-name="u" unicode="u" horiz-adv-x="845" 
d="M456 0q28 2 59 5.5t61 11.5t57 21t48 34q49 49 74 106t33.5 119.5t5 130t-10.5 136.5q-5 46 -20 74t-33.5 43t-37.5 20t-32 5q-25 0 -53 -6t-52 -19t-41.5 -32.5t-21.5 -47.5q-6 -15 -6 -43t2 -57.5l3.5 -53t-1.5 -27.5q-5 -30 -18.5 -43t-30.5 -13q-23 0 -38 13t-15 43
q0 38 3 62.5t3 42.5q0 41 -5 74.5t-18.5 57.5t-37 38.5t-59.5 17.5q-20 2 -39 2.5t-38.5 -4.5t-39 -17t-40.5 -36q-12 -14 -24 -42.5t-21.5 -64.5t-15.5 -77t-6 -81q0 -66 10 -122t32.5 -101t59 -79.5t90.5 -57.5q36 -15 65.5 -22.5t55.5 -9.5t49 -1.5t44 0.5z" />
    <glyph glyph-name="v" unicode="v" horiz-adv-x="857" 
d="M806 533q0 -20 -3 -56t-26 -99l-26 -65t-38.5 -81.5t-52.5 -84.5t-67.5 -74.5t-82 -50.5t-96.5 -13q-30 7 -73.5 28t-91.5 67t-96.5 122.5t-89.5 196.5q-3 8 -9 40t-3 73t21.5 83t65.5 71q23 14 40 14.5t32 1.5q26 1 58 -14.5t62.5 -42t58 -62.5t44.5 -76q3 4 13 22.5
t24.5 42t31.5 47.5t32 39q33 33 67.5 43.5t66.5 5t59 -23t46 -39.5q17 -20 25 -50t8 -65z" />
    <glyph glyph-name="w" unicode="w" horiz-adv-x="1008" 
d="M954 567q2 -24 3.5 -56t-5.5 -68q-10 -38 -19.5 -70t-22 -64.5t-30 -67.5t-42.5 -79q-16 -28 -34.5 -55t-39 -49t-44 -35t-48.5 -13q-12 0 -32.5 8.5t-43 25.5t-44 42t-36.5 57q-12 -19 -32.5 -46.5t-46.5 -51t-54.5 -35.5t-56.5 0q-32 14 -61 41.5t-55.5 64t-49.5 79.5
t-41.5 87.5t-33.5 88.5t-24 81q-12 47 -10 99t31 92q25 37 66 53t75 14q22 -1 43.5 -6.5t41.5 -18.5t37 -34.5t31 -54.5q14 -35 19 -62t7 -52.5t5.5 -53.5t14.5 -65q2 6 11.5 32t22 53.5t25.5 48t23 16.5q13 -3 26 -23t25 -45l22.5 -48.5t18.5 -33.5q3 24 5.5 54t7.5 61
t13.5 61t22.5 54q8 18 24 41t46 43q29 17 45.5 18t36.5 1q23 1 46 -5.5t44 -22t38.5 -40.5t28.5 -61z" />
    <glyph glyph-name="x" unicode="x" horiz-adv-x="881" 
d="M830 547q-1 -9 -1.5 -18.5t-3.5 -20.5t-10.5 -25.5t-22.5 -33.5q-17 -23 -43.5 -40t-52 -28.5t-44 -18t-18.5 -9.5q0 -5 16.5 -14.5l39 -22t44.5 -28t33 -31.5q19 -21 29.5 -41t15 -38.5t4 -36.5t-3.5 -34q-3 -17 -11 -32t-20 -28t-26 -22.5t-28 -13.5q-23 -7 -55 -6.5
t-65 10.5t-63 31t-49 56q-6 11 -14 28t-16.5 32.5t-15.5 27t-10 11.5q-1 1 -10.5 -13l-24.5 -35l-33 -45t-36 -44t-35.5 -34.5t-37 -22t-43.5 -7.5t-55 8q-17 4 -33.5 14.5t-30.5 24t-24.5 29t-15.5 29.5q-15 43 -6.5 73t31.5 62q14 20 55 51t112 77q-10 15 -31 26.5
l-44.5 23.5t-46 26.5t-34.5 37.5q-29 53 -19 106.5t55 90.5q13 13 37.5 23.5t54.5 14t62.5 -2.5t61.5 -27q8 -6 25.5 -26.5t36 -47t34.5 -53.5t20 -45q30 52 60.5 86.5t57.5 55.5t49.5 30.5t37.5 11.5q32 5 62 -5.5t52.5 -32.5t35.5 -51.5t11 -62.5z" />
    <glyph glyph-name="y" unicode="y" horiz-adv-x="878" 
d="M241 274q-9 36 -36 64.5l-57.5 59.5t-58 67.5t-37.5 88.5q-5 25 3.5 54.5t29 54t52.5 39t74 9.5q20 -2 37.5 -6.5t34.5 -15.5t35.5 -31t41.5 -53q10 -14 20 -35l19.5 -40t18.5 -32.5t17 -13.5q15 0 26.5 14.5t20 34.5t14.5 40.5t10 32.5q13 37 29 57.5t35 31t40.5 13
t45.5 3.5q33 1 59.5 -6t47 -18t34.5 -25t20 -26q18 -35 6.5 -74t-39.5 -80.5t-64.5 -85t-67.5 -86.5q0 -4 -5 -11t-11 -19.5t-12 -31.5t-9 -46q-7 -77 -33.5 -122.5t-63.5 -65.5t-80 -18t-83 19q-31 13 -48 37.5t-27.5 58.5t-18.5 75t-20 88z" />
    <glyph glyph-name="z" unicode="z" horiz-adv-x="831" 
d="M779 213q4 -61 -7.5 -101.5t-37 -65t-64 -34.5t-87.5 -9q-29 1 -82 -3t-115 -6t-125.5 1.5t-112.5 18.5q-54 17 -78 48t-19 73q5 31 35.5 70.5t71.5 78.5t86 74t79 58q-17 -2 -41 -6t-51.5 -7t-54.5 -2.5t-48.5 7.5t-35 22.5t-13.5 43.5q0 29 8 61.5t23 62.5t37 53.5
t50 33.5q16 6 48.5 9t73 4.5t84.5 1.5q45 0 85.5 -1t72 -3t46.5 -4q37 -5 67 -24t49.5 -46.5t25.5 -60t-6 -63.5q-9 -24 -31 -42t-51.5 -36l-63.5 -40t-68 -55q9 -2 32 0t48.5 5t48 5t30.5 1q31 -5 48.5 -13.5t26 -22.5t11.5 -35t5 -52z" />
    <glyph glyph-name="quotedblleft" unicode="&#x201c;" horiz-adv-x="518" 
d="M464 612q10 37 -9.5 68.5t-57.5 40.5q28 61 25.5 84t-23 14t-53 -46t-64.5 -95q-12 -21 -8.5 -43t16 -41t31 -32t36.5 -17q37 -8 68 11t39 56zM241 612q10 37 -9.5 68.5t-57.5 40.5q28 61 25.5 84t-23 14t-53 -46t-64.5 -95q-12 -21 -8.5 -43t16 -41t31 -32t36.5 -17
q37 -8 68 11t39 56z" />
    <glyph glyph-name="quotedblright" unicode="&#x201d;" horiz-adv-x="518" 
d="M54 749q-10 -37 9.5 -68.5t57.5 -40.5q-28 -61 -25.5 -84t23 -14t53 46t64.5 95q12 21 8.5 43t-16 41t-31 32t-36.5 17q-37 8 -68 -11t-39 -56zM277 749q-10 -37 9.5 -68.5t57.5 -40.5q-28 -61 -25.5 -84t23 -14t53 46t64.5 95q12 21 8.5 43t-16 41t-31 32t-36.5 17
q-37 8 -68 -11t-39 -56z" />
    <glyph glyph-name="A" unicode="A" horiz-adv-x="795" 
d="M745 227q0 -32 -1.5 -65t-10.5 -62t-28 -51.5t-54 -34.5q-23 -8 -51 -9t-55 3.5t-49 15t-32 25.5q-8 12 -13.5 39t-12.5 65q-5 24 -16.5 39t-25.5 15q-12 0 -23 -13t-13 -22q-3 -14 -5 -39t-13 -53q-22 -57 -72.5 -73.5t-119.5 0.5q-42 10 -67.5 42.5t-29.5 93.5
q-2 29 -2.5 53.5t2.5 50t10.5 55t21.5 68.5q13 36 33.5 71.5t48.5 78.5q16 25 40.5 54t55 55.5t65.5 45.5t73 25q37 5 72 -8t67 -37.5t59 -57t47 -65.5q10 -18 27 -54t33 -79.5t27.5 -89t11.5 -82.5zM451 422q-9 52 -51 51q-12 0 -23.5 -7t-18.5 -18.5t-9.5 -25t3.5 -27.5
q9 -23 20.5 -32t22 -10t19 2.5t11.5 5.5q17 12 23 28.5t3 32.5z" />
    <glyph glyph-name="visiblespace" 
 />
    <glyph glyph-name="FL0091" 
 />
    </font>
</defs>
</svg>
