<svg width="226" height="192" viewBox="0 0 226 192" fill="none" xmlns="http://www.w3.org/2000/svg">
<path d="M42.1407 2.61684C42.1407 2.61684 62.6201 -0.870124 76.1154 5.67177C89.6209 12.224 92.6655 13.5406 95.2782 13.5406C97.8908 13.5406 99.1972 16.1532 99.1972 16.1532C99.1972 16.1532 110.08 13.088 118.792 12.656C127.515 12.224 138.839 14.4046 142.748 16.5955C146.667 18.7761 165.83 39.7287 168.885 51.0845C168.885 51.0845 169.677 54.4789 169.399 55.5486C169.132 56.6286 175.046 53.656 177.463 54.2011C179.891 54.7463 180.158 54.4686 179.623 73.3434C179.089 92.2285 182.853 124.3 182.853 124.3C182.853 124.3 183.594 128.271 184.633 128.271C185.672 128.271 194.168 120.361 195.217 120.361C196.266 120.361 200.123 118.561 201.173 122.593C202.222 126.625 206.038 162.009 206.038 162.009L209.751 158.285C209.751 158.285 216.766 151.805 218.967 151.805C221.169 151.805 223.514 153.317 224.069 157.318L201.09 177.181L195.721 135.81C195.721 135.81 195.155 131.408 192.285 133.609C189.385 135.81 160.358 161.608 160.358 161.608C160.358 161.608 144.692 172.809 131.279 174.763C117.866 176.707 100.565 170.279 92.789 163.85L74.1199 188.022C74.1199 188.022 69.7689 194.194 65.4179 188.392C61.067 182.57 53.0953 162.235 53.0953 162.235C53.0953 162.235 51.3261 162.492 49.4232 164.56C47.5203 166.617 41.8321 169.476 39.7749 169.476C37.7177 169.476 36.1337 166.936 36.1337 161.381C36.1337 161.381 54.9673 151.075 57.6623 152.967C60.3469 154.87 69.5323 178.209 69.5323 178.209C69.5323 178.209 70.7975 179.155 71.9084 176.461C73.0193 173.755 83.6242 157.421 83.6242 157.421C83.6242 157.421 69.378 145.839 64.7802 127.746L63.9882 125.051C63.9882 125.051 52.6016 118.859 48.95 121.235C45.3088 123.611 39.6001 139.184 39.6001 139.184C39.6001 139.184 32.513 139.03 31.2581 135.409C30.0135 131.788 41.2767 111.71 47.2631 109.756C53.2496 107.801 62.9904 114.909 62.9904 114.909L62.291 93.8537C62.291 93.8537 48.1066 87.0238 43.231 87.3015C38.3555 87.5895 33.0787 99.0275 33.0787 99.0275L25.2819 118.273C25.2819 118.273 15.4074 115.619 13.8851 111.71C12.3524 107.801 36.5554 75.8737 37.3989 75.0406C38.232 74.1971 44.3522 71.9651 49.3512 74.6188C54.3708 77.2726 62.8567 83.4134 62.8567 83.4134C62.8567 83.4134 61.1698 59.6013 64.5333 49.2638L67.3208 42.7117C67.3208 42.7117 11.3238 25.3386 3.7122 22.3968C-3.88916 19.4653 5.47111 19.7636 14.5331 20.0619C23.6053 20.3602 50.5032 23.2814 71.2707 35.8818C71.2707 35.8818 80.9189 26.7992 86.7614 23.5694C86.7614 23.5694 46.9546 3.99516 42.151 2.64769" fill="#F7DBDC"/>
<path d="M178.142 81.3559C178.142 81.3559 194.466 78.4553 195.834 72.3042C197.192 66.1635 197.192 61.9668 195.834 60.9999C194.466 60.033 193.438 56.4844 198.2 55.1883C202.962 53.8923 205.349 55.1883 205.349 55.1883C205.349 55.1883 210.44 63.2731 208.754 71.0288C207.046 78.7844 203.302 91.3745 178.811 90.0887L178.132 81.3559H178.142Z" fill="#F7DBDC"/>
<path d="M178.595 102.679C178.595 102.679 216.376 102.031 216.376 98.8016C216.376 95.5718 216.376 86.5201 217.404 86.5201C218.433 86.5201 222.835 84.5864 223.874 87.1681C224.892 89.7499 225.921 98.8016 223.195 102.998C220.47 107.205 220.13 110.425 214.01 110.754C207.869 111.083 179.974 113.017 179.974 113.017L178.606 102.679H178.595Z" fill="#F7DBDC"/>
<path d="M218.967 151.804C216.776 151.804 209.751 158.284 209.751 158.284L206.038 162.008C206.038 162.008 202.211 126.624 201.173 122.592C200.123 118.56 196.256 120.36 195.217 120.36C194.178 120.36 185.672 128.27 184.633 128.27C183.594 128.27 182.853 124.299 182.853 124.299L181.691 113.149C181.691 113.149 208.764 111.072 214.575 110.742C220.366 110.424 220.695 107.194 223.277 102.987C225.859 98.79 224.892 89.7384 223.925 87.1566C222.948 84.5748 218.762 86.5086 217.805 86.5086C216.848 86.5086 216.828 95.5602 216.828 98.79C216.828 102.02 180.806 102.688 180.786 102.688C180.467 98.6563 180.179 94.3876 179.963 90.1498C203.168 91.4355 207.159 78.7632 208.784 71.0075C210.389 63.2519 205.554 55.1671 205.554 55.1671C205.554 55.1671 203.291 53.8711 198.786 55.1671C194.271 56.4631 195.238 60.0221 196.544 60.9787C197.83 61.9456 197.83 66.1526 196.544 72.283C195.248 78.4135 179.716 81.3244 179.644 81.3347C179.582 78.506 179.572 75.7905 179.644 73.3219C180.179 54.4471 179.911 54.7248 177.484 54.1796C175.067 53.6448 169.152 56.6071 169.42 55.5271C169.697 54.4471 168.905 51.063 168.905 51.063C165.85 39.7072 146.688 18.7649 142.769 16.574C138.86 14.3831 127.535 12.2025 118.813 12.6345C110.1 13.0665 99.2177 16.1317 99.2177 16.1317C99.2177 16.1317 97.9011 13.5191 95.2988 13.5191C92.6964 13.5191 89.6415 12.2025 76.1257 5.6503C62.6304 -0.891601 42.151 2.59534 42.151 2.59534C46.9546 3.9531 86.7614 23.5171 86.7614 23.5171C80.9189 26.7366 71.2707 35.8294 71.2707 35.8294C50.5135 23.2291 23.6053 20.2976 14.5331 20.0095C5.47111 19.7113 -3.88916 19.4232 3.7122 22.3445C11.3135 25.2863 67.3208 42.6593 67.3208 42.6593L64.5333 49.2115C61.1698 59.5489 62.8567 83.361 62.8567 83.361C62.8567 83.361 54.3708 77.2203 49.3512 74.5665C44.3522 71.9127 38.2217 74.1551 37.3988 74.9882C36.5554 75.8214 12.3524 107.749 13.885 111.658C15.4177 115.567 25.2819 118.22 25.2819 118.22L33.0787 98.9752C33.0787 98.9752 38.3554 87.5371 43.231 87.2491C48.1066 86.9714 62.291 93.8013 62.291 93.8013L62.9904 114.857C62.9904 114.857 53.2496 107.749 47.2631 109.703C41.287 111.658 30.0135 131.736 31.2581 135.357C32.5233 138.977 39.6001 139.132 39.6001 139.132C39.6001 139.132 45.3191 123.569 48.95 121.183C52.5913 118.807 63.9882 124.999 63.9882 124.999L64.7802 127.694C69.378 145.787 83.6241 157.369 83.6241 157.369C83.6241 157.369 73.0193 173.703 71.9084 176.408C70.8078 179.103 69.5323 178.157 69.5323 178.157C69.5323 178.157 60.3469 154.828 57.6623 152.915C54.9673 151.022 36.1337 161.329 36.1337 161.329C36.1337 166.883 37.7177 169.424 39.7749 169.424C41.8321 169.424 47.5306 166.564 49.4232 164.507C51.3261 162.44 53.0953 162.183 53.0953 162.183C53.0953 162.183 61.0669 182.528 65.4179 188.34C69.7689 194.152 74.1199 187.97 74.1199 187.97L92.789 163.798C100.565 170.237 117.866 176.655 131.279 174.711C144.692 172.757 160.358 161.555 160.358 161.555C160.358 161.555 189.385 135.758 192.285 133.557C195.166 131.355 195.721 135.758 195.721 135.758L201.09 177.128L224.069 157.266C223.514 153.265 221.169 151.753 218.967 151.753V151.804Z" fill="#FF766B"/>
<path d="M69.4602 191.838C67.7013 191.838 66.0864 190.871 64.6566 188.958C60.7274 183.712 54.1135 167.367 52.5397 163.407C51.9637 163.664 51.0791 164.179 50.1431 165.187C48.0653 167.439 42.1612 170.412 39.7851 170.412C38.3965 170.412 35.177 169.528 35.177 161.35V160.774L35.681 160.496C41.5029 157.308 55.3684 150.138 58.2382 152.144C60.9125 154.047 68.3082 172.408 70.2522 177.304C70.4168 177.17 70.7048 176.851 71.0237 176.059C72.0317 173.601 80.2811 160.795 82.3589 157.575C79.4376 155.014 67.9584 144.121 63.8543 127.952L63.1858 125.689C58.9273 123.426 51.7271 120.556 49.4951 122.027C46.7282 123.837 42.0789 135.244 40.5257 139.492L40.2891 140.14H39.5999C39.2811 140.12 31.8237 139.914 30.3631 135.697C29.6945 133.763 31.5049 129.453 33.1403 126.172C36.2158 120 42.4389 110.28 46.9853 108.799C51.9226 107.194 58.8656 111.031 61.9823 113.016L61.3651 94.4397C57.1067 92.4237 47.0059 88.0727 43.3132 88.227C40.1862 88.4121 35.9381 95.17 33.9941 99.3873L25.8887 119.383L25.0658 119.157C24.0064 118.869 14.6667 116.256 13.0106 112.018C11.1283 107.235 36.4627 74.5877 36.7404 74.31C37.9542 73.086 44.5269 70.9156 49.8345 73.7237C53.558 75.6883 59.0611 79.4736 61.7971 81.4074C61.468 75.3695 60.8097 57.657 63.6486 48.9242L66.0555 43.2771C58.1765 40.8291 10.4803 25.9967 3.4138 23.2606C1.08916 22.3657 -0.217162 21.6148 0.0297016 20.432C0.348568 18.8582 2.53949 18.6628 14.6153 19.0433C26.6087 19.4342 51.8814 23.1577 71.1883 34.6266C73.1117 32.8472 79.7256 26.8504 84.7864 23.6103C77.3084 19.9485 46.0596 4.69436 41.9349 3.53205L37.7999 2.36973L42.0377 1.64971C42.8915 1.50571 62.98 -1.80639 76.5987 4.78694C90.2174 11.3906 93.0254 12.5529 95.3398 12.5529C97.6541 12.5529 99.0325 14.0855 99.7011 15.0112C102.262 14.3221 111.263 12.0489 118.812 11.6683C127.72 11.1951 139.282 13.4786 143.293 15.721C147.438 18.025 166.817 39.3685 169.893 50.7962C170.047 51.4648 170.448 53.2649 170.489 54.6329C170.911 54.5198 171.446 54.3552 171.878 54.2215C173.904 53.594 176.198 52.8843 177.751 53.2237C181.094 53.9643 181.197 54.7152 180.662 73.3431C180.6 75.3386 180.6 77.581 180.642 80.1525C185.373 79.1136 194.764 76.2438 195.649 72.0779C197.223 64.5589 196.441 62.0697 196.009 61.7405C195.093 61.0617 194.312 59.5188 194.6 57.8833C194.775 56.8855 195.536 55.0855 198.57 54.2112C203.415 52.8226 205.986 54.242 206.089 54.3037L206.315 54.4272L206.449 54.6432C206.655 54.9826 211.448 63.1394 209.792 71.1728C208.589 76.9227 205.431 92.0431 181.053 91.1379C181.238 94.4912 181.464 98.0295 181.752 101.671C194.754 101.424 213.814 100.292 215.933 98.5644C215.933 86.0978 216.601 85.5115 217.877 85.5115C218 85.5115 218.422 85.3983 218.731 85.316C220.387 84.884 223.853 83.9789 224.913 86.7869C225.962 89.5847 227.001 98.8936 224.182 103.471C223.678 104.283 223.267 105.065 222.886 105.785C221.292 108.799 219.903 111.391 214.719 111.679C209.617 111.967 187.79 113.633 182.853 114.004L183.913 124.156C184.139 125.339 184.561 126.666 184.869 127.17C185.538 126.727 187.739 124.897 189.385 123.529C193.674 119.97 194.559 119.342 195.299 119.342C195.443 119.342 195.669 119.28 195.927 119.229C197.346 118.931 201.1 118.128 202.191 122.304C203.106 125.843 206.027 152.216 206.861 159.848L209.144 157.555C210.882 155.95 216.653 150.786 219.039 150.786C221.426 150.786 224.45 152.453 225.098 157.133L225.17 157.657L200.432 179.042L194.826 135.882C194.733 135.193 194.363 134.113 193.931 133.928C193.746 133.845 193.365 133.989 192.933 134.319C190.094 136.479 161.355 162.019 161.067 162.276C160.337 162.8 144.97 173.704 131.485 175.668C118.751 177.52 101.666 171.811 93.0254 165.166L74.9529 188.567C74.8912 188.659 72.6694 191.756 69.5836 191.797H69.5116L69.4602 191.838ZM53.7226 161.155L54.0003 161.864C54.0826 162.07 61.972 182.148 66.1995 187.795C67.259 189.205 68.411 189.925 69.4911 189.894C71.5688 189.863 73.3072 187.477 73.3277 187.446L92.6346 162.44L93.406 163.078C101.439 169.723 118.504 175.617 131.135 173.776C144.157 171.883 159.638 160.898 159.792 160.795C160.903 159.807 188.798 135.008 191.689 132.807C192.985 131.809 193.993 131.912 194.61 132.169C196.235 132.848 196.616 135.203 196.677 135.666L201.81 175.247L223.01 156.927C222.495 154.304 221.004 152.761 218.957 152.761C217.836 152.761 213.649 155.991 210.399 158.984L205.277 164.117L205.061 162.101C205.019 161.751 201.234 126.748 200.216 122.829C199.64 120.628 198.138 120.762 196.235 121.163C195.824 121.255 195.495 121.317 195.196 121.317C194.795 121.502 192.326 123.559 190.516 125.061C186.237 128.61 185.353 129.237 184.612 129.237C183.388 129.237 182.473 127.633 181.886 124.475L180.611 112.265L181.608 112.183C181.876 112.162 208.753 110.105 214.503 109.776C218.607 109.55 219.482 107.894 221.076 104.901C221.477 104.139 221.909 103.327 222.434 102.483C224.738 98.729 223.946 90.0167 222.999 87.4967C222.629 86.5195 221.24 86.6635 219.122 87.2189C218.803 87.3012 218.545 87.3732 218.309 87.4144C218.083 88.2167 217.784 90.7985 217.784 98.7804C217.784 103.44 181.146 103.646 180.775 103.646H179.88L179.808 102.751C179.459 98.3793 179.181 94.1517 178.986 90.1916L178.924 89.1116L180.004 89.1733C203.703 90.4796 206.593 76.6964 207.817 70.8025C209.165 64.2709 205.626 57.3278 204.855 55.9187C204.248 55.6924 202.294 55.1575 199.033 56.0935C197.973 56.4021 196.657 57.0192 196.441 58.2433C196.287 59.0867 196.729 59.9199 197.099 60.1976C199.198 61.7817 198.457 67.7578 197.469 72.4894C196.04 79.237 180.456 82.1788 179.798 82.3022L178.677 82.508L178.656 81.3662C178.595 78.2701 178.595 75.6266 178.656 73.302C179.16 55.5586 178.862 55.4866 177.381 55.1575C176.229 54.9003 173.915 55.6204 172.382 56.0935C170.335 56.7312 169.409 57.0192 168.772 56.4124L168.36 56.0215L168.463 55.3015C168.597 54.7872 168.309 52.8123 167.949 51.29C165.058 40.5617 146.183 19.5988 142.285 17.4284C138.5 15.3095 127.412 13.17 118.843 13.6123C110.347 14.0341 99.5673 17.0479 99.4645 17.0787L98.7033 17.2947L98.333 16.585C98.333 16.585 97.2427 14.4969 95.2781 14.4969C92.3774 14.4969 89.2093 13.0878 75.6832 6.53557C66.0144 1.85544 52.478 2.45202 46.0184 3.10004C56.9216 7.80074 85.7635 21.9748 87.1727 22.664L88.839 23.4869L87.2138 24.3818C81.5463 27.5087 72.0111 36.4575 71.9186 36.5501L71.3837 37.0541L70.7562 36.6735C51.7066 25.1121 26.4339 21.3783 14.4918 20.9874C10.6757 20.864 5.28584 20.6891 2.82749 20.9463C3.13607 21.0903 3.53722 21.2548 4.05152 21.4606C11.5397 24.3509 67.043 41.58 67.5984 41.7548L68.627 42.0737L65.4178 49.6133C62.1777 59.5702 63.7926 83.0737 63.8132 83.3103L63.9572 85.3778L62.2806 84.164C62.1983 84.1023 53.7946 78.0335 48.8985 75.4415C44.2287 72.9625 38.6536 75.174 38.0776 75.6883C35.753 78.1878 13.9158 107.925 14.7901 111.329C15.7879 113.891 21.6817 116.143 24.7161 117.059L32.194 98.6261C32.77 97.3609 37.8822 86.6121 43.1795 86.3035C48.3019 86.0155 62.1263 92.6705 62.7126 92.9483L63.2372 93.2054L64.0189 116.832L62.4143 115.66C62.3217 115.588 53.0232 108.861 47.5613 110.64C44.2081 111.73 38.3553 120 34.8581 127.036C32.3175 132.138 31.9986 134.514 32.1837 135.059C32.9449 137.229 36.8433 137.98 38.9519 138.145C40.1965 134.853 44.9589 122.664 48.4356 120.391C52.4472 117.768 63.2475 123.508 64.4612 124.166L64.8109 124.362L65.7161 127.437C70.1802 145.026 84.0972 156.526 84.2412 156.639L84.9201 157.184L84.4469 157.915C81.5154 162.44 73.698 174.65 72.8134 176.8C72.2477 178.168 71.5174 178.991 70.6328 179.238C69.7379 179.495 69.0899 179.052 68.9665 178.96L68.7402 178.795L68.6373 178.538C64.2349 167.357 58.7011 154.86 57.1067 153.739C55.6564 152.946 45.6995 157.277 37.1107 161.926C37.2033 165.927 38.2319 168.478 39.7748 168.478C41.472 168.478 46.9236 165.814 48.7133 163.87C50.7911 161.618 52.7455 161.278 52.9615 161.247L53.7226 161.144V161.155Z" fill="#2B2118"/>
<path d="M113.844 46.9295C113.844 52.2576 109.483 56.5572 104.104 56.5572C98.724 56.5572 94.373 52.2473 94.373 46.9295C94.373 41.6116 98.7343 37.3018 104.104 37.3018C109.473 37.3018 113.844 41.6116 113.844 46.9295Z" fill="white"/>
<path d="M104.103 57.0711C98.4562 57.0711 93.8584 52.5247 93.8584 46.9291C93.8584 41.3335 98.4562 36.7871 104.103 36.7871C109.75 36.7871 114.358 41.3335 114.358 46.9291C114.358 52.5247 109.761 57.0711 104.103 57.0711ZM104.103 37.8157C99.022 37.8157 94.8767 41.9095 94.8767 46.9291C94.8767 51.9487 99.0117 56.0425 104.103 56.0425C109.195 56.0425 113.33 51.9487 113.33 46.9291C113.33 41.9095 109.185 37.8157 104.103 37.8157Z" fill="#26190C"/>
<path d="M145.196 40.4182C145.196 45.7464 140.835 50.0459 135.455 50.0459C130.076 50.0459 125.725 45.7361 125.725 40.4182C125.725 35.1004 130.086 30.7905 135.455 30.7905C140.825 30.7905 145.196 35.1004 145.196 40.4182Z" fill="white"/>
<path d="M135.455 50.5599C129.808 50.5599 125.21 46.0135 125.21 40.4179C125.21 34.8223 129.808 30.2759 135.455 30.2759C141.102 30.2759 145.71 34.8223 145.71 40.4179C145.71 46.0135 141.112 50.5599 135.455 50.5599ZM135.455 31.3045C130.374 31.3045 126.229 35.3983 126.229 40.4179C126.229 45.4374 130.363 49.5313 135.455 49.5313C140.547 49.5313 144.682 45.4374 144.682 40.4179C144.682 35.3983 140.536 31.3045 135.455 31.3045Z" fill="#26190C"/>
<path d="M142.707 40.624C142.707 42.784 140.937 44.5327 138.757 44.5327C136.576 44.5327 134.786 42.7738 134.786 40.624C134.786 38.4742 136.566 36.7256 138.757 36.7256C140.948 36.7256 142.707 38.4742 142.707 40.624Z" fill="#26190C"/>
<path d="M111.561 46.3838C111.561 48.5438 109.791 50.2925 107.6 50.2925C105.41 50.2925 103.64 48.5438 103.64 46.3838C103.64 44.2237 105.42 42.4751 107.6 42.4751C109.781 42.4751 111.561 44.2237 111.561 46.3838Z" fill="#26190C"/>
<path d="M96.4194 78.9705L95.144 78.8779C95.8434 69.1473 91.369 62.626 91.3279 62.554L92.377 61.8237C92.5725 62.1015 97.16 68.7668 96.4194 78.9705Z" fill="#26190C"/>
<path d="M95.6069 70.6999L95.4629 69.4347C96.0492 69.373 153.908 62.7282 169.121 54.9932L169.697 56.1349C154.278 63.9728 97.9932 70.4325 95.6069 70.7102V70.6999Z" fill="#26190C"/>
<path d="M114.163 76.3665L113.073 68.0657L120.674 66.7388L121.816 74.227L114.163 76.3665Z" fill="white"/>
<path d="M113.628 77.1809L112.353 67.5429L121.198 66L122.515 74.6917L113.618 77.1706L113.628 77.1809ZM113.782 68.5921L114.698 75.5557L121.085 73.7762L120.129 67.4915L113.772 68.6024L113.782 68.5921Z" fill="#26190C"/>
<path d="M132.986 64.7235L139.497 63.6641L140.372 69.0642L133.974 71.7489L132.986 64.7235Z" fill="white"/>
<path d="M133.45 72.6539L132.267 64.1885L140.022 62.9233L141.082 69.455L133.46 72.6539H133.45ZM133.707 65.248L134.488 70.8333L139.662 68.6629L138.973 64.384L133.717 65.2377L133.707 65.248Z" fill="#26190C"/>
<path d="M109.802 140.397V136.179C109.802 135.583 108.876 135.583 108.876 136.179V140.397C108.876 140.993 109.802 140.993 109.802 140.397Z" fill="#26190C"/>
<path d="M126.023 139.729V135.408C126.023 134.812 125.097 134.812 125.097 135.408V139.729C125.097 140.325 126.023 140.325 126.023 139.729Z" fill="#26190C"/>
<path d="M119.646 146.311V141.981C119.646 141.394 118.72 141.384 118.72 141.981V146.311C118.72 146.908 119.646 146.908 119.646 146.311Z" fill="#26190C"/>
<path d="M130.158 151.259V146.939C130.158 146.343 129.232 146.343 129.232 146.939V151.259C129.232 151.856 130.158 151.856 130.158 151.259Z" fill="#26190C"/>
<path d="M141.966 143.041V138.711C141.966 138.114 141.04 138.114 141.04 138.711V143.041C141.04 143.638 141.966 143.638 141.966 143.041Z" fill="#26190C"/>
<path d="M100.935 148.586V144.256C100.935 143.659 100.009 143.659 100.009 144.256V148.586C100.009 149.183 100.935 149.183 100.935 148.586Z" fill="#26190C"/>
<path d="M90.207 143.545V139.215C90.207 138.628 89.2812 138.618 89.2812 139.215V143.545C89.2812 144.142 90.207 144.142 90.207 143.545Z" fill="#26190C"/>
<path d="M151.985 138.32V134C151.985 133.403 151.059 133.403 151.059 134V138.32C151.059 138.916 151.985 138.916 151.985 138.32Z" fill="#26190C"/>
<path d="M155.266 146.838V142.507C155.266 141.911 154.34 141.911 154.34 142.507V146.838C154.34 147.434 155.266 147.434 155.266 146.838Z" fill="#26190C"/>
<path d="M99.7524 133.64V129.423C99.7524 128.826 98.8267 128.826 98.8267 129.423V133.64C98.8267 134.236 99.7524 134.236 99.7524 133.64Z" fill="#26190C"/>
<path d="M114.996 132.592V128.375C114.996 127.778 114.071 127.778 114.071 128.375V132.592C114.071 133.189 114.996 133.189 114.996 132.592Z" fill="#26190C"/>
<path d="M110.44 153.841V149.624C110.44 149.027 109.514 149.027 109.514 149.624V153.841C109.514 154.438 110.44 154.438 110.44 153.841Z" fill="#26190C"/>
<path d="M120.427 158.749V154.542C120.427 153.945 119.502 153.945 119.502 154.542V158.749C119.502 159.345 120.427 159.345 120.427 158.749Z" fill="#26190C"/>
<path d="M138.644 155.951V151.734C138.644 151.137 137.718 151.137 137.718 151.734V155.951C137.718 156.548 138.644 156.548 138.644 155.951Z" fill="#26190C"/>
<path d="M89.5896 130.482V126.264C89.5896 125.668 88.6638 125.668 88.6638 126.264V130.482C88.6638 131.078 89.5896 131.078 89.5896 130.482Z" fill="#26190C"/>
<path d="M81.186 137.332V133.115C81.186 132.518 80.2603 132.518 80.2603 133.115V137.332C80.2603 137.929 81.186 137.929 81.186 137.332Z" fill="#26190C"/>
<path d="M107.642 125.215V120.998C107.642 120.401 106.716 120.401 106.716 120.998V125.215C106.716 125.812 107.642 125.812 107.642 125.215Z" fill="#26190C"/>
<path d="M163.104 135.503V131.285C163.104 130.689 162.178 130.689 162.178 131.285V135.503C162.178 136.099 163.104 136.099 163.104 135.503Z" fill="#26190C"/>
<path d="M107.169 45.4573C107.169 46.1259 106.624 46.6505 105.945 46.6505C105.266 46.6505 104.731 46.1156 104.731 45.4573C104.731 44.799 105.266 44.2642 105.945 44.2642C106.624 44.2642 107.169 44.799 107.169 45.4573Z" fill="white"/>
<path d="M138.171 39.8113C138.171 40.4799 137.636 41.0045 136.967 41.0045C136.299 41.0045 135.753 40.4696 135.753 39.8113C135.753 39.153 136.288 38.6182 136.967 38.6182C137.646 38.6182 138.171 39.153 138.171 39.8113Z" fill="white"/>
</svg>
